<mxfile host="app.diagrams.net" modified="2023-08-14T08:37:11.823Z" agent="Mozilla/5.0 (Windows NT 10.0; Win64; x64) AppleWebKit/537.36 (KHTML, like Gecko) Chrome/115.0.0.0 Safari/537.36 Edg/115.0.1901.203" etag="Sp5ezRh2F88oZR4iK3Q2" version="21.6.8" type="github">
  <diagram name="Trang-1" id="a93HQ-2Yhv1V-fkxgcoa">
    <mxGraphModel dx="1057" dy="653" grid="1" gridSize="10" guides="1" tooltips="1" connect="1" arrows="1" fold="1" page="1" pageScale="1" pageWidth="827" pageHeight="1169" math="0" shadow="0">
      <root>
        <mxCell id="0" />
        <mxCell id="1" parent="0" />
        <mxCell id="b_T0NZLw3iRLqCjJVqVj-1" value="" style="rounded=0;whiteSpace=wrap;html=1;" parent="1" vertex="1">
          <mxGeometry x="180" y="20" width="640" height="350" as="geometry" />
        </mxCell>
        <mxCell id="b_T0NZLw3iRLqCjJVqVj-5" value="" style="rounded=1;whiteSpace=wrap;html=1;" parent="1" vertex="1">
          <mxGeometry x="36" y="64" width="110" height="260" as="geometry" />
        </mxCell>
        <mxCell id="b_T0NZLw3iRLqCjJVqVj-6" value="" style="rounded=1;whiteSpace=wrap;html=1;" parent="1" vertex="1">
          <mxGeometry x="371" y="65" width="420" height="285" as="geometry" />
        </mxCell>
        <mxCell id="b_T0NZLw3iRLqCjJVqVj-7" value="" style="rounded=1;whiteSpace=wrap;html=1;" parent="1" vertex="1">
          <mxGeometry x="210" y="64" width="110" height="75" as="geometry" />
        </mxCell>
        <mxCell id="b_T0NZLw3iRLqCjJVqVj-8" value="" style="shape=flexArrow;endArrow=classic;startArrow=classic;html=1;rounded=0;exitX=1;exitY=0.25;exitDx=0;exitDy=0;" parent="1" source="B-47JvwtqmCdVb9b-BcM-12" target="b_T0NZLw3iRLqCjJVqVj-7" edge="1">
          <mxGeometry width="100" height="100" relative="1" as="geometry">
            <mxPoint x="130" y="210" as="sourcePoint" />
            <mxPoint x="230" y="110" as="targetPoint" />
          </mxGeometry>
        </mxCell>
        <mxCell id="b_T0NZLw3iRLqCjJVqVj-9" value="" style="shape=flexArrow;endArrow=classic;startArrow=classic;html=1;rounded=0;exitX=1;exitY=0.5;exitDx=0;exitDy=0;entryX=0;entryY=0.5;entryDx=0;entryDy=0;" parent="1" edge="1" target="B-47JvwtqmCdVb9b-BcM-11">
          <mxGeometry width="100" height="100" relative="1" as="geometry">
            <mxPoint x="320" y="194.25" as="sourcePoint" />
            <mxPoint x="370" y="195.75" as="targetPoint" />
          </mxGeometry>
        </mxCell>
        <mxCell id="b_T0NZLw3iRLqCjJVqVj-12" value="USER&lt;br&gt;INTERFACE" style="text;html=1;strokeColor=none;fillColor=none;align=center;verticalAlign=middle;whiteSpace=wrap;rounded=0;" parent="1" vertex="1">
          <mxGeometry x="61" y="94" width="60" height="30" as="geometry" />
        </mxCell>
        <mxCell id="b_T0NZLw3iRLqCjJVqVj-13" value="API&lt;br&gt;APIGateWay" style="text;html=1;strokeColor=none;fillColor=none;align=center;verticalAlign=middle;whiteSpace=wrap;rounded=0;" parent="1" vertex="1">
          <mxGeometry x="235" y="94" width="60" height="30" as="geometry" />
        </mxCell>
        <mxCell id="b_T0NZLw3iRLqCjJVqVj-14" value="Service&lt;br&gt;MicroService" style="text;html=1;strokeColor=none;fillColor=none;align=center;verticalAlign=middle;whiteSpace=wrap;rounded=0;" parent="1" vertex="1">
          <mxGeometry x="540" y="315" width="60" height="30" as="geometry" />
        </mxCell>
        <mxCell id="B-47JvwtqmCdVb9b-BcM-2" value="" style="rounded=1;whiteSpace=wrap;html=1;" vertex="1" parent="1">
          <mxGeometry x="210" y="170" width="110" height="75" as="geometry" />
        </mxCell>
        <mxCell id="B-47JvwtqmCdVb9b-BcM-3" value="API&lt;br&gt;APIGateWay" style="text;html=1;strokeColor=none;fillColor=none;align=center;verticalAlign=middle;whiteSpace=wrap;rounded=0;" vertex="1" parent="1">
          <mxGeometry x="235" y="200" width="60" height="30" as="geometry" />
        </mxCell>
        <mxCell id="B-47JvwtqmCdVb9b-BcM-4" value="" style="rounded=1;whiteSpace=wrap;html=1;" vertex="1" parent="1">
          <mxGeometry x="210" y="270" width="110" height="75" as="geometry" />
        </mxCell>
        <mxCell id="B-47JvwtqmCdVb9b-BcM-5" value="API&lt;br&gt;APIGateWay" style="text;html=1;strokeColor=none;fillColor=none;align=center;verticalAlign=middle;whiteSpace=wrap;rounded=0;" vertex="1" parent="1">
          <mxGeometry x="235" y="292.5" width="60" height="30" as="geometry" />
        </mxCell>
        <mxCell id="B-47JvwtqmCdVb9b-BcM-7" value="" style="shape=flexArrow;endArrow=classic;startArrow=classic;html=1;rounded=0;entryX=-0.018;entryY=0.628;entryDx=0;entryDy=0;entryPerimeter=0;exitX=1;exitY=0.5;exitDx=0;exitDy=0;" edge="1" parent="1" source="B-47JvwtqmCdVb9b-BcM-13" target="B-47JvwtqmCdVb9b-BcM-2">
          <mxGeometry width="100" height="100" relative="1" as="geometry">
            <mxPoint x="310" y="400" as="sourcePoint" />
            <mxPoint x="410" y="300" as="targetPoint" />
          </mxGeometry>
        </mxCell>
        <mxCell id="B-47JvwtqmCdVb9b-BcM-8" value="" style="shape=flexArrow;endArrow=classic;startArrow=classic;html=1;rounded=0;entryX=-0.042;entryY=0.637;entryDx=0;entryDy=0;entryPerimeter=0;exitX=1;exitY=0.75;exitDx=0;exitDy=0;" edge="1" parent="1" source="B-47JvwtqmCdVb9b-BcM-14" target="B-47JvwtqmCdVb9b-BcM-4">
          <mxGeometry width="100" height="100" relative="1" as="geometry">
            <mxPoint x="310" y="400" as="sourcePoint" />
            <mxPoint x="410" y="300" as="targetPoint" />
          </mxGeometry>
        </mxCell>
        <mxCell id="B-47JvwtqmCdVb9b-BcM-9" value="" style="shape=flexArrow;endArrow=classic;startArrow=classic;html=1;rounded=0;exitX=1.016;exitY=0.393;exitDx=0;exitDy=0;entryX=0;entryY=0.866;entryDx=0;entryDy=0;entryPerimeter=0;exitPerimeter=0;" edge="1" parent="1" source="B-47JvwtqmCdVb9b-BcM-4" target="B-47JvwtqmCdVb9b-BcM-11">
          <mxGeometry width="100" height="100" relative="1" as="geometry">
            <mxPoint x="330" y="204.25" as="sourcePoint" />
            <mxPoint x="380" y="205.75" as="targetPoint" />
          </mxGeometry>
        </mxCell>
        <mxCell id="B-47JvwtqmCdVb9b-BcM-10" value="" style="shape=flexArrow;endArrow=classic;startArrow=classic;html=1;rounded=0;entryX=1;entryY=0.75;entryDx=0;entryDy=0;exitX=0;exitY=0.25;exitDx=0;exitDy=0;" edge="1" parent="1" source="B-47JvwtqmCdVb9b-BcM-11" target="b_T0NZLw3iRLqCjJVqVj-7">
          <mxGeometry width="100" height="100" relative="1" as="geometry">
            <mxPoint x="340" y="214.25" as="sourcePoint" />
            <mxPoint x="390" y="215.75" as="targetPoint" />
          </mxGeometry>
        </mxCell>
        <mxCell id="B-47JvwtqmCdVb9b-BcM-11" value="Conver API" style="rounded=1;whiteSpace=wrap;html=1;" vertex="1" parent="1">
          <mxGeometry x="390" y="92.5" width="60" height="205" as="geometry" />
        </mxCell>
        <mxCell id="B-47JvwtqmCdVb9b-BcM-12" value="Web browser" style="rounded=0;whiteSpace=wrap;html=1;" vertex="1" parent="1">
          <mxGeometry x="46" y="150" width="90" height="40" as="geometry" />
        </mxCell>
        <mxCell id="B-47JvwtqmCdVb9b-BcM-13" value="Mobile app" style="rounded=0;whiteSpace=wrap;html=1;" vertex="1" parent="1">
          <mxGeometry x="46" y="205" width="90" height="40" as="geometry" />
        </mxCell>
        <mxCell id="B-47JvwtqmCdVb9b-BcM-14" value="Outside Service" style="rounded=0;whiteSpace=wrap;html=1;" vertex="1" parent="1">
          <mxGeometry x="46" y="270" width="90" height="40" as="geometry" />
        </mxCell>
        <mxCell id="B-47JvwtqmCdVb9b-BcM-17" value="MicroService 1" style="rounded=1;whiteSpace=wrap;html=1;" vertex="1" parent="1">
          <mxGeometry x="520" y="86" width="240" height="46" as="geometry" />
        </mxCell>
        <mxCell id="B-47JvwtqmCdVb9b-BcM-18" value="&lt;span style=&quot;color: rgb(0, 0, 0); font-family: Helvetica; font-size: 12px; font-style: normal; font-variant-ligatures: normal; font-variant-caps: normal; font-weight: 400; letter-spacing: normal; orphans: 2; text-align: center; text-indent: 0px; text-transform: none; widows: 2; word-spacing: 0px; -webkit-text-stroke-width: 0px; background-color: rgb(251, 251, 251); text-decoration-thickness: initial; text-decoration-style: initial; text-decoration-color: initial; float: none; display: inline !important;&quot;&gt;MicroService&lt;span&gt;&amp;nbsp;&lt;/span&gt;&lt;/span&gt;2" style="rounded=1;whiteSpace=wrap;html=1;" vertex="1" parent="1">
          <mxGeometry x="520" y="144" width="240" height="46" as="geometry" />
        </mxCell>
        <mxCell id="B-47JvwtqmCdVb9b-BcM-19" value="&lt;span style=&quot;color: rgb(0, 0, 0); font-family: Helvetica; font-size: 12px; font-style: normal; font-variant-ligatures: normal; font-variant-caps: normal; font-weight: 400; letter-spacing: normal; orphans: 2; text-align: center; text-indent: 0px; text-transform: none; widows: 2; word-spacing: 0px; -webkit-text-stroke-width: 0px; background-color: rgb(251, 251, 251); text-decoration-thickness: initial; text-decoration-style: initial; text-decoration-color: initial; float: none; display: inline !important;&quot;&gt;MicroService&lt;span&gt;&amp;nbsp;3&lt;/span&gt;&lt;/span&gt;" style="rounded=1;whiteSpace=wrap;html=1;" vertex="1" parent="1">
          <mxGeometry x="519" y="202" width="240" height="46" as="geometry" />
        </mxCell>
        <mxCell id="B-47JvwtqmCdVb9b-BcM-20" value="&lt;span style=&quot;color: rgb(0, 0, 0); font-family: Helvetica; font-size: 12px; font-style: normal; font-variant-ligatures: normal; font-variant-caps: normal; font-weight: 400; letter-spacing: normal; orphans: 2; text-align: center; text-indent: 0px; text-transform: none; widows: 2; word-spacing: 0px; -webkit-text-stroke-width: 0px; background-color: rgb(251, 251, 251); text-decoration-thickness: initial; text-decoration-style: initial; text-decoration-color: initial; float: none; display: inline !important;&quot;&gt;MicroService&lt;span&gt;&amp;nbsp;4&lt;/span&gt;&lt;/span&gt;" style="rounded=1;whiteSpace=wrap;html=1;" vertex="1" parent="1">
          <mxGeometry x="520" y="260" width="240" height="46" as="geometry" />
        </mxCell>
        <mxCell id="B-47JvwtqmCdVb9b-BcM-21" value="" style="shape=flexArrow;endArrow=classic;startArrow=classic;html=1;rounded=0;entryX=0;entryY=0.75;entryDx=0;entryDy=0;exitX=0.982;exitY=0.274;exitDx=0;exitDy=0;exitPerimeter=0;" edge="1" parent="1" source="B-47JvwtqmCdVb9b-BcM-11" target="B-47JvwtqmCdVb9b-BcM-17">
          <mxGeometry width="100" height="100" relative="1" as="geometry">
            <mxPoint x="320" y="340" as="sourcePoint" />
            <mxPoint x="420" y="240" as="targetPoint" />
          </mxGeometry>
        </mxCell>
        <mxCell id="B-47JvwtqmCdVb9b-BcM-22" value="" style="shape=flexArrow;endArrow=classic;startArrow=classic;html=1;rounded=0;entryX=0;entryY=0.5;entryDx=0;entryDy=0;exitX=1;exitY=0.427;exitDx=0;exitDy=0;exitPerimeter=0;" edge="1" parent="1" source="B-47JvwtqmCdVb9b-BcM-11" target="B-47JvwtqmCdVb9b-BcM-18">
          <mxGeometry width="100" height="100" relative="1" as="geometry">
            <mxPoint x="450" y="190" as="sourcePoint" />
            <mxPoint x="521" y="162" as="targetPoint" />
          </mxGeometry>
        </mxCell>
        <mxCell id="B-47JvwtqmCdVb9b-BcM-23" value="" style="shape=flexArrow;endArrow=classic;startArrow=classic;html=1;rounded=0;entryX=0;entryY=0.5;entryDx=0;entryDy=0;exitX=0.969;exitY=0.704;exitDx=0;exitDy=0;exitPerimeter=0;" edge="1" parent="1" source="B-47JvwtqmCdVb9b-BcM-11" target="B-47JvwtqmCdVb9b-BcM-19">
          <mxGeometry width="100" height="100" relative="1" as="geometry">
            <mxPoint x="449" y="248" as="sourcePoint" />
            <mxPoint x="520" y="220" as="targetPoint" />
          </mxGeometry>
        </mxCell>
        <mxCell id="B-47JvwtqmCdVb9b-BcM-24" value="" style="shape=flexArrow;endArrow=classic;startArrow=classic;html=1;rounded=0;entryX=0;entryY=0.5;entryDx=0;entryDy=0;exitX=0.982;exitY=0.917;exitDx=0;exitDy=0;exitPerimeter=0;" edge="1" parent="1" source="B-47JvwtqmCdVb9b-BcM-11" target="B-47JvwtqmCdVb9b-BcM-20">
          <mxGeometry width="100" height="100" relative="1" as="geometry">
            <mxPoint x="449" y="292.5" as="sourcePoint" />
            <mxPoint x="520" y="264.5" as="targetPoint" />
          </mxGeometry>
        </mxCell>
        <mxCell id="B-47JvwtqmCdVb9b-BcM-25" value="" style="rounded=0;whiteSpace=wrap;html=1;" vertex="1" parent="1">
          <mxGeometry x="172" y="422.5" width="640" height="350" as="geometry" />
        </mxCell>
        <mxCell id="B-47JvwtqmCdVb9b-BcM-26" value="" style="rounded=1;whiteSpace=wrap;html=1;" vertex="1" parent="1">
          <mxGeometry x="28" y="454" width="110" height="260" as="geometry" />
        </mxCell>
        <mxCell id="B-47JvwtqmCdVb9b-BcM-27" value="" style="rounded=1;whiteSpace=wrap;html=1;" vertex="1" parent="1">
          <mxGeometry x="363" y="455" width="420" height="285" as="geometry" />
        </mxCell>
        <mxCell id="B-47JvwtqmCdVb9b-BcM-28" value="" style="rounded=1;whiteSpace=wrap;html=1;" vertex="1" parent="1">
          <mxGeometry x="202" y="454" width="110" height="75" as="geometry" />
        </mxCell>
        <mxCell id="B-47JvwtqmCdVb9b-BcM-29" value="" style="shape=flexArrow;endArrow=classic;startArrow=classic;html=1;rounded=0;exitX=1;exitY=0.25;exitDx=0;exitDy=0;" edge="1" parent="1" source="B-47JvwtqmCdVb9b-BcM-43" target="B-47JvwtqmCdVb9b-BcM-28">
          <mxGeometry width="100" height="100" relative="1" as="geometry">
            <mxPoint x="122" y="600" as="sourcePoint" />
            <mxPoint x="222" y="500" as="targetPoint" />
          </mxGeometry>
        </mxCell>
        <mxCell id="B-47JvwtqmCdVb9b-BcM-30" value="" style="shape=flexArrow;endArrow=classic;startArrow=classic;html=1;rounded=0;exitX=1;exitY=0.5;exitDx=0;exitDy=0;entryX=0;entryY=0.5;entryDx=0;entryDy=0;" edge="1" parent="1" target="B-47JvwtqmCdVb9b-BcM-42">
          <mxGeometry width="100" height="100" relative="1" as="geometry">
            <mxPoint x="312" y="584.25" as="sourcePoint" />
            <mxPoint x="362" y="585.75" as="targetPoint" />
          </mxGeometry>
        </mxCell>
        <mxCell id="B-47JvwtqmCdVb9b-BcM-31" value="Client&lt;br&gt;Vunerable" style="text;html=1;strokeColor=none;fillColor=none;align=center;verticalAlign=middle;whiteSpace=wrap;rounded=0;" vertex="1" parent="1">
          <mxGeometry x="53" y="484" width="60" height="30" as="geometry" />
        </mxCell>
        <mxCell id="B-47JvwtqmCdVb9b-BcM-32" value="API&lt;br&gt;APIGateWay" style="text;html=1;strokeColor=none;fillColor=none;align=center;verticalAlign=middle;whiteSpace=wrap;rounded=0;" vertex="1" parent="1">
          <mxGeometry x="227" y="484" width="60" height="30" as="geometry" />
        </mxCell>
        <mxCell id="B-47JvwtqmCdVb9b-BcM-33" value="Service&lt;br&gt;MicroService" style="text;html=1;strokeColor=none;fillColor=none;align=center;verticalAlign=middle;whiteSpace=wrap;rounded=0;" vertex="1" parent="1">
          <mxGeometry x="532" y="705" width="60" height="30" as="geometry" />
        </mxCell>
        <mxCell id="B-47JvwtqmCdVb9b-BcM-34" value="" style="rounded=1;whiteSpace=wrap;html=1;" vertex="1" parent="1">
          <mxGeometry x="202" y="560" width="110" height="75" as="geometry" />
        </mxCell>
        <mxCell id="B-47JvwtqmCdVb9b-BcM-35" value="API&lt;br&gt;APIGateWay" style="text;html=1;strokeColor=none;fillColor=none;align=center;verticalAlign=middle;whiteSpace=wrap;rounded=0;" vertex="1" parent="1">
          <mxGeometry x="227" y="590" width="60" height="30" as="geometry" />
        </mxCell>
        <mxCell id="B-47JvwtqmCdVb9b-BcM-36" value="" style="rounded=1;whiteSpace=wrap;html=1;" vertex="1" parent="1">
          <mxGeometry x="202" y="660" width="110" height="75" as="geometry" />
        </mxCell>
        <mxCell id="B-47JvwtqmCdVb9b-BcM-37" value="API&lt;br&gt;APIGateWay" style="text;html=1;strokeColor=none;fillColor=none;align=center;verticalAlign=middle;whiteSpace=wrap;rounded=0;" vertex="1" parent="1">
          <mxGeometry x="227" y="682.5" width="60" height="30" as="geometry" />
        </mxCell>
        <mxCell id="B-47JvwtqmCdVb9b-BcM-38" value="" style="shape=flexArrow;endArrow=classic;startArrow=classic;html=1;rounded=0;entryX=-0.018;entryY=0.628;entryDx=0;entryDy=0;entryPerimeter=0;exitX=1;exitY=0.5;exitDx=0;exitDy=0;" edge="1" parent="1" source="B-47JvwtqmCdVb9b-BcM-44" target="B-47JvwtqmCdVb9b-BcM-34">
          <mxGeometry width="100" height="100" relative="1" as="geometry">
            <mxPoint x="302" y="790" as="sourcePoint" />
            <mxPoint x="402" y="690" as="targetPoint" />
          </mxGeometry>
        </mxCell>
        <mxCell id="B-47JvwtqmCdVb9b-BcM-39" value="" style="shape=flexArrow;endArrow=classic;startArrow=classic;html=1;rounded=0;entryX=-0.042;entryY=0.637;entryDx=0;entryDy=0;entryPerimeter=0;exitX=1;exitY=0.75;exitDx=0;exitDy=0;" edge="1" parent="1" source="B-47JvwtqmCdVb9b-BcM-45" target="B-47JvwtqmCdVb9b-BcM-36">
          <mxGeometry width="100" height="100" relative="1" as="geometry">
            <mxPoint x="302" y="790" as="sourcePoint" />
            <mxPoint x="402" y="690" as="targetPoint" />
          </mxGeometry>
        </mxCell>
        <mxCell id="B-47JvwtqmCdVb9b-BcM-40" value="" style="shape=flexArrow;endArrow=classic;startArrow=classic;html=1;rounded=0;exitX=1.016;exitY=0.393;exitDx=0;exitDy=0;entryX=0;entryY=0.866;entryDx=0;entryDy=0;entryPerimeter=0;exitPerimeter=0;" edge="1" parent="1" source="B-47JvwtqmCdVb9b-BcM-36" target="B-47JvwtqmCdVb9b-BcM-42">
          <mxGeometry width="100" height="100" relative="1" as="geometry">
            <mxPoint x="322" y="594.25" as="sourcePoint" />
            <mxPoint x="372" y="595.75" as="targetPoint" />
          </mxGeometry>
        </mxCell>
        <mxCell id="B-47JvwtqmCdVb9b-BcM-41" value="" style="shape=flexArrow;endArrow=classic;startArrow=classic;html=1;rounded=0;entryX=1;entryY=0.75;entryDx=0;entryDy=0;exitX=0;exitY=0.25;exitDx=0;exitDy=0;" edge="1" parent="1" source="B-47JvwtqmCdVb9b-BcM-42" target="B-47JvwtqmCdVb9b-BcM-28">
          <mxGeometry width="100" height="100" relative="1" as="geometry">
            <mxPoint x="332" y="604.25" as="sourcePoint" />
            <mxPoint x="382" y="605.75" as="targetPoint" />
          </mxGeometry>
        </mxCell>
        <mxCell id="B-47JvwtqmCdVb9b-BcM-42" value="Conver API" style="rounded=1;whiteSpace=wrap;html=1;" vertex="1" parent="1">
          <mxGeometry x="382" y="482.5" width="60" height="205" as="geometry" />
        </mxCell>
        <mxCell id="B-47JvwtqmCdVb9b-BcM-43" value="Web browser" style="rounded=0;whiteSpace=wrap;html=1;" vertex="1" parent="1">
          <mxGeometry x="38" y="540" width="90" height="40" as="geometry" />
        </mxCell>
        <mxCell id="B-47JvwtqmCdVb9b-BcM-44" value="Mobile app" style="rounded=0;whiteSpace=wrap;html=1;" vertex="1" parent="1">
          <mxGeometry x="38" y="595" width="90" height="40" as="geometry" />
        </mxCell>
        <mxCell id="B-47JvwtqmCdVb9b-BcM-45" value="Outside Service" style="rounded=0;whiteSpace=wrap;html=1;" vertex="1" parent="1">
          <mxGeometry x="38" y="660" width="90" height="40" as="geometry" />
        </mxCell>
        <mxCell id="B-47JvwtqmCdVb9b-BcM-46" value="MicroService 1" style="rounded=1;whiteSpace=wrap;html=1;" vertex="1" parent="1">
          <mxGeometry x="512" y="476" width="240" height="46" as="geometry" />
        </mxCell>
        <mxCell id="B-47JvwtqmCdVb9b-BcM-47" value="&lt;span style=&quot;color: rgb(0, 0, 0); font-family: Helvetica; font-size: 12px; font-style: normal; font-variant-ligatures: normal; font-variant-caps: normal; font-weight: 400; letter-spacing: normal; orphans: 2; text-align: center; text-indent: 0px; text-transform: none; widows: 2; word-spacing: 0px; -webkit-text-stroke-width: 0px; background-color: rgb(251, 251, 251); text-decoration-thickness: initial; text-decoration-style: initial; text-decoration-color: initial; float: none; display: inline !important;&quot;&gt;MicroService&lt;span&gt;&amp;nbsp;&lt;/span&gt;&lt;/span&gt;2" style="rounded=1;whiteSpace=wrap;html=1;" vertex="1" parent="1">
          <mxGeometry x="512" y="534" width="240" height="46" as="geometry" />
        </mxCell>
        <mxCell id="B-47JvwtqmCdVb9b-BcM-48" value="&lt;span style=&quot;color: rgb(0, 0, 0); font-family: Helvetica; font-size: 12px; font-style: normal; font-variant-ligatures: normal; font-variant-caps: normal; font-weight: 400; letter-spacing: normal; orphans: 2; text-align: center; text-indent: 0px; text-transform: none; widows: 2; word-spacing: 0px; -webkit-text-stroke-width: 0px; background-color: rgb(251, 251, 251); text-decoration-thickness: initial; text-decoration-style: initial; text-decoration-color: initial; float: none; display: inline !important;&quot;&gt;MicroService&lt;span&gt;&amp;nbsp;3&lt;/span&gt;&lt;/span&gt;" style="rounded=1;whiteSpace=wrap;html=1;" vertex="1" parent="1">
          <mxGeometry x="511" y="592" width="240" height="46" as="geometry" />
        </mxCell>
        <mxCell id="B-47JvwtqmCdVb9b-BcM-49" value="&lt;span style=&quot;color: rgb(0, 0, 0); font-family: Helvetica; font-size: 12px; font-style: normal; font-variant-ligatures: normal; font-variant-caps: normal; font-weight: 400; letter-spacing: normal; orphans: 2; text-align: center; text-indent: 0px; text-transform: none; widows: 2; word-spacing: 0px; -webkit-text-stroke-width: 0px; background-color: rgb(251, 251, 251); text-decoration-thickness: initial; text-decoration-style: initial; text-decoration-color: initial; float: none; display: inline !important;&quot;&gt;MicroService&lt;span&gt;&amp;nbsp;4&lt;/span&gt;&lt;/span&gt;" style="rounded=1;whiteSpace=wrap;html=1;" vertex="1" parent="1">
          <mxGeometry x="512" y="650" width="240" height="46" as="geometry" />
        </mxCell>
        <mxCell id="B-47JvwtqmCdVb9b-BcM-50" value="" style="shape=flexArrow;endArrow=classic;startArrow=classic;html=1;rounded=0;entryX=0;entryY=0.75;entryDx=0;entryDy=0;exitX=0.982;exitY=0.274;exitDx=0;exitDy=0;exitPerimeter=0;" edge="1" parent="1" source="B-47JvwtqmCdVb9b-BcM-42" target="B-47JvwtqmCdVb9b-BcM-46">
          <mxGeometry width="100" height="100" relative="1" as="geometry">
            <mxPoint x="312" y="730" as="sourcePoint" />
            <mxPoint x="412" y="630" as="targetPoint" />
          </mxGeometry>
        </mxCell>
        <mxCell id="B-47JvwtqmCdVb9b-BcM-51" value="" style="shape=flexArrow;endArrow=classic;startArrow=classic;html=1;rounded=0;entryX=0;entryY=0.5;entryDx=0;entryDy=0;exitX=1;exitY=0.427;exitDx=0;exitDy=0;exitPerimeter=0;" edge="1" parent="1" source="B-47JvwtqmCdVb9b-BcM-42" target="B-47JvwtqmCdVb9b-BcM-47">
          <mxGeometry width="100" height="100" relative="1" as="geometry">
            <mxPoint x="442" y="580" as="sourcePoint" />
            <mxPoint x="513" y="552" as="targetPoint" />
          </mxGeometry>
        </mxCell>
        <mxCell id="B-47JvwtqmCdVb9b-BcM-52" value="" style="shape=flexArrow;endArrow=classic;startArrow=classic;html=1;rounded=0;entryX=0;entryY=0.5;entryDx=0;entryDy=0;exitX=0.969;exitY=0.704;exitDx=0;exitDy=0;exitPerimeter=0;" edge="1" parent="1" source="B-47JvwtqmCdVb9b-BcM-42" target="B-47JvwtqmCdVb9b-BcM-48">
          <mxGeometry width="100" height="100" relative="1" as="geometry">
            <mxPoint x="441" y="638" as="sourcePoint" />
            <mxPoint x="512" y="610" as="targetPoint" />
          </mxGeometry>
        </mxCell>
        <mxCell id="B-47JvwtqmCdVb9b-BcM-53" value="" style="shape=flexArrow;endArrow=classic;startArrow=classic;html=1;rounded=0;entryX=0;entryY=0.5;entryDx=0;entryDy=0;exitX=0.982;exitY=0.917;exitDx=0;exitDy=0;exitPerimeter=0;" edge="1" parent="1" source="B-47JvwtqmCdVb9b-BcM-42" target="B-47JvwtqmCdVb9b-BcM-49">
          <mxGeometry width="100" height="100" relative="1" as="geometry">
            <mxPoint x="441" y="682.5" as="sourcePoint" />
            <mxPoint x="512" y="654.5" as="targetPoint" />
          </mxGeometry>
        </mxCell>
      </root>
    </mxGraphModel>
  </diagram>
</mxfile>
